<svg xmlns="http://www.w3.org/2000/svg" xmlns:xlink="http://www.w3.org/1999/xlink" width="500" zoomAndPan="magnify" viewBox="0 0 375 374.999991" height="500" preserveAspectRatio="xMidYMid meet" version="1.0"><defs><g/><clipPath id="fb326dd5ed"><path d="M 112.21875 95 L 259.96875 95 L 259.96875 214.21875 L 112.21875 214.21875 Z M 112.21875 95 " clip-rule="nonzero"/></clipPath></defs><g fill="#93613f" fill-opacity="1"><g transform="translate(120.877318, 253.181263)"><g><path d="M 22.734375 -3.6875 C 22.160156 -2.976562 21.457031 -2.359375 20.625 -1.828125 C 19.800781 -1.296875 18.910156 -0.851562 17.953125 -0.5 C 17.003906 -0.15625 16.03125 0.101562 15.03125 0.28125 C 14.03125 0.457031 13.078125 0.546875 12.171875 0.546875 C 10.429688 0.546875 8.828125 0.234375 7.359375 -0.390625 C 5.890625 -1.023438 4.617188 -1.890625 3.546875 -2.984375 C 2.484375 -4.085938 1.648438 -5.382812 1.046875 -6.875 C 0.441406 -8.375 0.140625 -9.984375 0.140625 -11.703125 C 0.140625 -13.015625 0.289062 -14.300781 0.59375 -15.5625 C 0.894531 -16.820312 1.328125 -18.007812 1.890625 -19.125 C 2.453125 -20.238281 3.132812 -21.257812 3.9375 -22.1875 C 4.75 -23.125 5.664062 -23.929688 6.6875 -24.609375 C 7.707031 -25.285156 8.828125 -25.804688 10.046875 -26.171875 C 11.265625 -26.546875 12.566406 -26.734375 13.953125 -26.734375 C 14.460938 -26.734375 15.015625 -26.710938 15.609375 -26.671875 C 16.203125 -26.628906 16.789062 -26.554688 17.375 -26.453125 C 17.957031 -26.359375 18.523438 -26.21875 19.078125 -26.03125 C 19.628906 -25.851562 20.132812 -25.628906 20.59375 -25.359375 L 20.09375 -18.46875 C 19.414062 -18.71875 18.71875 -18.882812 18 -18.96875 C 17.28125 -19.0625 16.582031 -19.109375 15.90625 -19.109375 C 14.9375 -19.109375 14.03125 -18.960938 13.1875 -18.671875 C 12.351562 -18.378906 11.625 -17.953125 11 -17.390625 C 10.382812 -16.835938 9.894531 -16.164062 9.53125 -15.375 C 9.175781 -14.582031 9 -13.6875 9 -12.6875 C 9 -12.0625 9.082031 -11.453125 9.25 -10.859375 C 9.414062 -10.273438 9.671875 -9.757812 10.015625 -9.3125 C 10.359375 -8.863281 10.785156 -8.5 11.296875 -8.21875 C 11.804688 -7.945312 12.398438 -7.8125 13.078125 -7.8125 C 13.535156 -7.8125 14.007812 -7.867188 14.5 -7.984375 C 14.988281 -8.109375 15.40625 -8.3125 15.75 -8.59375 L 15.828125 -10.015625 L 11.484375 -10.078125 L 11.703125 -15.5 C 13.503906 -15.5625 15.300781 -15.613281 17.09375 -15.65625 C 18.882812 -15.695312 20.691406 -15.753906 22.515625 -15.828125 Z M 22.734375 -3.6875 "/></g></g></g><g fill="#93613f" fill-opacity="1"><g transform="translate(144.054075, 253.181263)"><g><path d="M 10.671875 -25.4375 L 8.6875 -0.828125 L 1.0625 -0.4375 L 1.0625 -24.9375 Z M 10.671875 -25.4375 "/></g></g></g><g fill="#93613f" fill-opacity="1"><g transform="translate(155.055359, 253.181263)"><g><path d="M 23.703125 -1.546875 L 14.75 -0.390625 L 13.65625 -4.484375 L 9.546875 -4.484375 L 8.640625 -0.390625 L -0.578125 -1.296875 L 6.609375 -25.359375 L 16.65625 -25.875 Z M 13.015625 -10.015625 L 11.640625 -16.296875 L 10.296875 -10.015625 Z M 13.015625 -10.015625 "/></g></g></g><g fill="#93613f" fill-opacity="1"><g transform="translate(178.214045, 253.181263)"><g/></g></g><g fill="#93613f" fill-opacity="1"><g transform="translate(185.439845, 253.181263)"><g><path d="M 22.359375 0 L 13.328125 0.4375 L 13.265625 -7.90625 L 9.109375 -7.90625 L 8.859375 0 L 0.765625 0 L 1.453125 -25.40625 L 10.046875 -25 L 9.5 -12.03125 L 13.515625 -12.03125 L 13.546875 -25.984375 L 21.78125 -25.765625 Z M 22.359375 0 "/></g></g></g><g fill="#93613f" fill-opacity="1"><g transform="translate(208.598531, 253.181263)"><g><path d="M 22.53125 -20.09375 C 22.53125 -19.195312 22.488281 -18.210938 22.40625 -17.140625 C 22.320312 -16.066406 22.179688 -14.957031 21.984375 -13.8125 C 21.796875 -12.675781 21.546875 -11.519531 21.234375 -10.34375 C 20.929688 -9.164062 20.550781 -8.035156 20.09375 -6.953125 C 19.632812 -5.867188 19.097656 -4.851562 18.484375 -3.90625 C 17.878906 -2.96875 17.179688 -2.144531 16.390625 -1.4375 C 15.609375 -0.726562 14.726562 -0.175781 13.75 0.21875 C 12.769531 0.625 11.6875 0.828125 10.5 0.828125 C 9.101562 0.828125 7.890625 0.597656 6.859375 0.140625 C 5.828125 -0.304688 4.941406 -0.910156 4.203125 -1.671875 C 3.472656 -2.429688 2.875 -3.320312 2.40625 -4.34375 C 1.9375 -5.363281 1.566406 -6.441406 1.296875 -7.578125 C 1.035156 -8.710938 0.851562 -9.875 0.75 -11.0625 C 0.644531 -12.25 0.59375 -13.390625 0.59375 -14.484375 C 0.59375 -16.171875 0.675781 -17.851562 0.84375 -19.53125 C 1.019531 -21.21875 1.265625 -22.898438 1.578125 -24.578125 L 10.03125 -24.25 C 9.707031 -22.351562 9.425781 -20.453125 9.1875 -18.546875 C 8.945312 -16.640625 8.828125 -14.722656 8.828125 -12.796875 C 8.828125 -12.585938 8.835938 -12.28125 8.859375 -11.875 C 8.878906 -11.476562 8.910156 -11.03125 8.953125 -10.53125 C 9.003906 -10.03125 9.070312 -9.515625 9.15625 -8.984375 C 9.25 -8.460938 9.375 -7.984375 9.53125 -7.546875 C 9.695312 -7.117188 9.890625 -6.765625 10.109375 -6.484375 C 10.328125 -6.210938 10.585938 -6.078125 10.890625 -6.078125 C 11.242188 -6.078125 11.554688 -6.238281 11.828125 -6.5625 C 12.109375 -6.894531 12.351562 -7.335938 12.5625 -7.890625 C 12.769531 -8.441406 12.953125 -9.078125 13.109375 -9.796875 C 13.265625 -10.523438 13.394531 -11.28125 13.5 -12.0625 C 13.613281 -12.851562 13.703125 -13.640625 13.765625 -14.421875 C 13.835938 -15.203125 13.894531 -15.925781 13.9375 -16.59375 C 13.976562 -17.269531 14.003906 -17.867188 14.015625 -18.390625 C 14.023438 -18.910156 14.03125 -19.296875 14.03125 -19.546875 C 14.03125 -20.484375 14.015625 -21.414062 13.984375 -22.34375 C 13.960938 -23.28125 13.921875 -24.21875 13.859375 -25.15625 L 22.3125 -25.15625 C 22.457031 -23.488281 22.53125 -21.800781 22.53125 -20.09375 Z M 22.53125 -20.09375 "/></g></g></g><g fill="#93613f" fill-opacity="1"><g transform="translate(231.64883, 253.181263)"><g><path d="M 24.140625 -24.46875 L 14.203125 -10.59375 L 13.734375 0.71875 L 5.171875 0.71875 L 5.390625 -10.515625 L 0.21875 -23.921875 L 9.4375 -25.078125 L 10.875 -17.265625 L 15.46875 -25.078125 Z M 24.140625 -24.46875 "/></g></g></g><g fill="#93613f" fill-opacity="1"><g transform="translate(135.216335, 277.131251)"><g><path d="M 2.234375 0.09375 C 1.929688 0.09375 1.6875 0 1.5 -0.1875 C 1.3125 -0.382812 1.21875 -0.632812 1.21875 -0.9375 L 1.21875 -10.296875 C 1.21875 -10.609375 1.304688 -10.847656 1.484375 -11.015625 C 1.660156 -11.191406 1.898438 -11.28125 2.203125 -11.28125 L 7.828125 -11.28125 C 8.472656 -11.28125 8.796875 -11.003906 8.796875 -10.453125 C 8.796875 -9.898438 8.472656 -9.625 7.828125 -9.625 L 3.25 -9.625 L 3.25 -6.5625 L 7.5 -6.5625 C 8.15625 -6.5625 8.484375 -6.285156 8.484375 -5.734375 C 8.484375 -5.179688 8.15625 -4.90625 7.5 -4.90625 L 3.25 -4.90625 L 3.25 -0.9375 C 3.25 -0.632812 3.15625 -0.382812 2.96875 -0.1875 C 2.789062 0 2.546875 0.09375 2.234375 0.09375 Z M 2.234375 0.09375 "/></g></g></g><g fill="#93613f" fill-opacity="1"><g transform="translate(149.870173, 277.131251)"><g><path d="M 6.234375 0.140625 C 5.140625 0.140625 4.1875 -0.09375 3.375 -0.5625 C 2.570312 -1.03125 1.953125 -1.703125 1.515625 -2.578125 C 1.078125 -3.453125 0.859375 -4.472656 0.859375 -5.640625 C 0.859375 -6.816406 1.070312 -7.835938 1.5 -8.703125 C 1.9375 -9.578125 2.5625 -10.25 3.375 -10.71875 C 4.1875 -11.1875 5.140625 -11.421875 6.234375 -11.421875 C 7.335938 -11.421875 8.289062 -11.1875 9.09375 -10.71875 C 9.894531 -10.25 10.507812 -9.578125 10.9375 -8.703125 C 11.375 -7.835938 11.59375 -6.816406 11.59375 -5.640625 C 11.59375 -4.472656 11.375 -3.453125 10.9375 -2.578125 C 10.5 -1.703125 9.878906 -1.03125 9.078125 -0.5625 C 8.273438 -0.09375 7.328125 0.140625 6.234375 0.140625 Z M 6.234375 -1.5 C 7.273438 -1.5 8.082031 -1.851562 8.65625 -2.5625 C 9.238281 -3.28125 9.53125 -4.304688 9.53125 -5.640625 C 9.53125 -6.972656 9.238281 -7.992188 8.65625 -8.703125 C 8.082031 -9.421875 7.273438 -9.78125 6.234375 -9.78125 C 5.191406 -9.78125 4.378906 -9.421875 3.796875 -8.703125 C 3.210938 -7.992188 2.921875 -6.972656 2.921875 -5.640625 C 2.921875 -4.304688 3.210938 -3.28125 3.796875 -2.5625 C 4.378906 -1.851562 5.191406 -1.5 6.234375 -1.5 Z M 6.234375 -1.5 "/></g></g></g><g fill="#93613f" fill-opacity="1"><g transform="translate(167.931192, 277.131251)"><g><path d="M 9.765625 -11.359375 C 10.054688 -11.359375 10.289062 -11.265625 10.46875 -11.078125 C 10.644531 -10.890625 10.734375 -10.644531 10.734375 -10.34375 L 10.734375 -0.9375 C 10.734375 -0.632812 10.640625 -0.382812 10.453125 -0.1875 C 10.273438 0 10.046875 0.09375 9.765625 0.09375 C 9.421875 0.09375 9.15625 -0.0234375 8.96875 -0.265625 L 3.140625 -7.875 L 3.140625 -0.9375 C 3.140625 -0.632812 3.050781 -0.382812 2.875 -0.1875 C 2.707031 0 2.472656 0.09375 2.171875 0.09375 C 1.878906 0.09375 1.644531 0 1.46875 -0.1875 C 1.300781 -0.382812 1.21875 -0.632812 1.21875 -0.9375 L 1.21875 -10.34375 C 1.21875 -10.644531 1.304688 -10.890625 1.484375 -11.078125 C 1.671875 -11.265625 1.910156 -11.359375 2.203125 -11.359375 C 2.535156 -11.359375 2.789062 -11.234375 2.96875 -10.984375 L 8.796875 -3.421875 L 8.796875 -10.34375 C 8.796875 -10.644531 8.882812 -10.890625 9.0625 -11.078125 C 9.238281 -11.265625 9.472656 -11.359375 9.765625 -11.359375 Z M 9.765625 -11.359375 "/></g></g></g><g fill="#93613f" fill-opacity="1"><g transform="translate(185.48034, 277.131251)"><g><path d="M 4.90625 0.078125 C 4.59375 0.078125 4.34375 -0.015625 4.15625 -0.203125 C 3.96875 -0.390625 3.875 -0.632812 3.875 -0.9375 L 3.875 -9.578125 L 0.953125 -9.578125 C 0.316406 -9.578125 0 -9.863281 0 -10.4375 C 0 -11 0.316406 -11.28125 0.953125 -11.28125 L 8.84375 -11.28125 C 9.488281 -11.28125 9.8125 -11 9.8125 -10.4375 C 9.8125 -9.863281 9.488281 -9.578125 8.84375 -9.578125 L 5.9375 -9.578125 L 5.9375 -0.9375 C 5.9375 -0.632812 5.84375 -0.390625 5.65625 -0.203125 C 5.46875 -0.015625 5.21875 0.078125 4.90625 0.078125 Z M 4.90625 0.078125 "/></g></g></g><g fill="#93613f" fill-opacity="1"><g transform="translate(200.885997, 277.131251)"><g/></g></g><g fill="#93613f" fill-opacity="1"><g transform="translate(210.820967, 277.131251)"><g><path d="M 2.203125 0 C 1.898438 0 1.660156 -0.0820312 1.484375 -0.25 C 1.304688 -0.425781 1.21875 -0.664062 1.21875 -0.96875 L 1.21875 -10.296875 C 1.21875 -10.609375 1.304688 -10.847656 1.484375 -11.015625 C 1.660156 -11.191406 1.898438 -11.28125 2.203125 -11.28125 L 7.984375 -11.28125 C 8.296875 -11.28125 8.535156 -11.207031 8.703125 -11.0625 C 8.867188 -10.925781 8.953125 -10.734375 8.953125 -10.484375 C 8.953125 -10.210938 8.867188 -10.003906 8.703125 -9.859375 C 8.535156 -9.710938 8.296875 -9.640625 7.984375 -9.640625 L 3.234375 -9.640625 L 3.234375 -6.546875 L 7.65625 -6.546875 C 7.96875 -6.546875 8.207031 -6.472656 8.375 -6.328125 C 8.550781 -6.191406 8.640625 -5.992188 8.640625 -5.734375 C 8.640625 -5.472656 8.550781 -5.269531 8.375 -5.125 C 8.207031 -4.988281 7.96875 -4.921875 7.65625 -4.921875 L 3.234375 -4.921875 L 3.234375 -1.625 L 7.984375 -1.625 C 8.296875 -1.625 8.535156 -1.550781 8.703125 -1.40625 C 8.867188 -1.269531 8.953125 -1.066406 8.953125 -0.796875 C 8.953125 -0.546875 8.867188 -0.347656 8.703125 -0.203125 C 8.535156 -0.0664062 8.296875 0 7.984375 0 Z M 2.203125 0 "/></g></g></g><g fill="#93613f" fill-opacity="1"><g transform="translate(225.842722, 277.131251)"><g><path d="M 9.765625 -11.359375 C 10.054688 -11.359375 10.289062 -11.265625 10.46875 -11.078125 C 10.644531 -10.890625 10.734375 -10.644531 10.734375 -10.34375 L 10.734375 -0.9375 C 10.734375 -0.632812 10.640625 -0.382812 10.453125 -0.1875 C 10.273438 0 10.046875 0.09375 9.765625 0.09375 C 9.421875 0.09375 9.15625 -0.0234375 8.96875 -0.265625 L 3.140625 -7.875 L 3.140625 -0.9375 C 3.140625 -0.632812 3.050781 -0.382812 2.875 -0.1875 C 2.707031 0 2.472656 0.09375 2.171875 0.09375 C 1.878906 0.09375 1.644531 0 1.46875 -0.1875 C 1.300781 -0.382812 1.21875 -0.632812 1.21875 -0.9375 L 1.21875 -10.34375 C 1.21875 -10.644531 1.304688 -10.890625 1.484375 -11.078125 C 1.671875 -11.265625 1.910156 -11.359375 2.203125 -11.359375 C 2.535156 -11.359375 2.789062 -11.234375 2.96875 -10.984375 L 8.796875 -3.421875 L 8.796875 -10.34375 C 8.796875 -10.644531 8.882812 -10.890625 9.0625 -11.078125 C 9.238281 -11.265625 9.472656 -11.359375 9.765625 -11.359375 Z M 9.765625 -11.359375 "/></g></g></g><g fill="#93613f" fill-opacity="1"><g transform="translate(243.391869, 277.131251)"><g><path d="M 2.203125 0 C 1.898438 0 1.660156 -0.0820312 1.484375 -0.25 C 1.304688 -0.425781 1.21875 -0.664062 1.21875 -0.96875 L 1.21875 -10.296875 C 1.21875 -10.609375 1.304688 -10.847656 1.484375 -11.015625 C 1.660156 -11.191406 1.898438 -11.28125 2.203125 -11.28125 L 5.375 -11.28125 C 7.21875 -11.28125 8.648438 -10.785156 9.671875 -9.796875 C 10.691406 -8.804688 11.203125 -7.421875 11.203125 -5.640625 C 11.203125 -3.847656 10.691406 -2.457031 9.671875 -1.46875 C 8.648438 -0.488281 7.21875 0 5.375 0 Z M 5.25 -1.6875 C 7.84375 -1.6875 9.140625 -3.003906 9.140625 -5.640625 C 9.140625 -8.273438 7.84375 -9.59375 5.25 -9.59375 L 3.28125 -9.59375 L 3.28125 -1.6875 Z M 5.25 -1.6875 "/></g></g></g><path fill="#ffdf9f" d="M 145.75 166.9375 C 147.796875 166.816406 149.890625 166.066406 151.976562 164.707031 C 153.683594 163.597656 154.605469 162.402344 154.726562 161.15625 C 154.828125 160.136719 154.359375 159.027344 153.480469 158.1875 C 152.757812 157.496094 151.757812 156.960938 150.425781 156.554688 C 149.109375 156.148438 147.507812 155.902344 145.847656 155.902344 C 143.417969 155.902344 140.871094 156.429688 138.914062 157.769531 C 138.171875 158.28125 137.753906 159.035156 137.675781 160.015625 C 137.53125 161.824219 138.601562 163.886719 139.679688 164.90625 C 141.1875 166.339844 143.398438 167.074219 145.746094 166.941406 Z M 145.75 166.9375 " fill-opacity="1" fill-rule="nonzero"/><path fill="#ffdf9f" d="M 155.5 159.625 C 155.3125 159.414062 155.136719 159.191406 154.972656 158.96875 C 155.082031 159.179688 155.175781 159.402344 155.25 159.625 Z M 155.5 159.625 " fill-opacity="1" fill-rule="nonzero"/><path fill="#efca8b" d="M 240.621094 121.835938 C 240.707031 108.796875 237.304688 98.230469 232.375 96.484375 C 227.496094 94.75 220.972656 100.449219 219.414062 101.910156 C 229.351562 107.0625 236.527344 115.785156 240.617188 121.839844 Z M 240.621094 121.835938 " fill-opacity="1" fill-rule="nonzero"/><path fill="#efca8b" d="M 156.484375 159.625 L 193.085938 159.625 C 193.289062 159.625 193.453125 159.789062 193.453125 159.988281 L 193.453125 166.078125 C 198.695312 166.117188 202.414062 165.992188 202.449219 165.992188 C 202.789062 166 234.3125 167.003906 245.039062 161.976562 C 248.050781 160.566406 250.039062 158.332031 250.945312 155.332031 C 253.632812 146.449219 246.453125 132.660156 241.9375 125.230469 C 237.027344 117.160156 223.351562 98.382812 202.460938 98.382812 C 181.574219 98.382812 167.898438 117.15625 162.988281 125.230469 C 157.234375 134.6875 148.742188 151.734375 156.476562 159.613281 C 156.480469 159.617188 156.484375 159.625 156.484375 159.625 Z M 156.484375 159.625 " fill-opacity="1" fill-rule="nonzero"/><path fill="#efca8b" d="M 185.457031 101.933594 C 183.953125 100.523438 177.382812 94.734375 172.46875 96.480469 C 167.527344 98.230469 164.117188 108.859375 164.226562 121.949219 C 168.300781 115.90625 175.484375 107.121094 185.457031 101.933594 Z M 185.457031 101.933594 " fill-opacity="1" fill-rule="nonzero"/><path fill="#bfa680" d="M 192.71875 160.355469 L 155.429688 160.355469 C 155.472656 160.644531 155.484375 160.9375 155.457031 161.226562 C 155.316406 162.703125 154.277344 164.078125 152.378906 165.316406 C 150.183594 166.746094 147.96875 167.535156 145.796875 167.664062 C 145.59375 167.675781 145.394531 167.683594 145.195312 167.683594 C 142.871094 167.683594 140.707031 166.878906 139.183594 165.433594 C 138.03125 164.34375 136.945312 162.296875 136.941406 160.355469 L 113.335938 160.355469 L 113.335938 207.238281 L 192.71875 207.238281 Z M 192.71875 160.355469 " fill-opacity="1" fill-rule="nonzero"/><path fill="#efca8b" d="M 253.082031 164.421875 C 250.515625 164.046875 247.742188 165.011719 245.84375 166.9375 C 244.085938 168.71875 243.085938 171.316406 243.128906 173.929688 C 247.355469 181.679688 251.957031 192.738281 249.726562 201.199219 C 249.679688 201.367188 249.628906 201.53125 249.570312 201.695312 C 252.265625 201.9375 254.613281 199.605469 255.363281 197.125 C 256.167969 194.460938 255.621094 191.511719 254.910156 188.726562 C 254.832031 188.414062 254.75 188.101562 254.667969 187.792969 C 254.015625 185.277344 253.339844 182.675781 253.570312 180.039062 C 253.816406 177.28125 254.789062 176.234375 256.640625 174.480469 C 257.964844 173.226562 258.640625 171.910156 258.699219 170.449219 C 258.839844 167.097656 255.910156 164.847656 253.082031 164.429688 Z M 253.082031 164.421875 " fill-opacity="1" fill-rule="nonzero"/><path fill="#efca8b" d="M 242.40625 174.242188 C 242.40625 174.242188 242.40625 174.21875 242.40625 174.210938 C 239.617188 169.078125 237.015625 165.417969 236.746094 165.035156 C 228.113281 166.535156 216.898438 166.820312 209.675781 166.820312 C 205.617188 166.820312 202.824219 166.730469 202.449219 166.71875 C 202.433594 166.71875 198.707031 166.839844 193.453125 166.804688 L 193.453125 207.234375 L 202.707031 207.234375 C 206.046875 207.234375 208.78125 209.851562 208.972656 213.136719 C 212.738281 213.082031 246.058594 212.261719 249.023438 201.007812 C 251.144531 192.957031 246.707031 182.1875 242.578125 174.527344 C 242.480469 174.464844 242.414062 174.363281 242.40625 174.242188 Z M 242.40625 174.242188 " fill-opacity="1" fill-rule="nonzero"/><path fill="#a88d6a" d="M 202.703125 207.960938 L 113.347656 207.960938 C 113.535156 210.851562 115.949219 213.140625 118.886719 213.140625 L 208.246094 213.140625 C 208.058594 210.253906 205.644531 207.960938 202.707031 207.960938 Z M 202.703125 207.960938 " fill-opacity="1" fill-rule="nonzero"/><path fill="#ffffff" d="M 158.628906 183.792969 C 158.628906 184.160156 158.59375 184.523438 158.523438 184.886719 C 158.449219 185.246094 158.34375 185.59375 158.203125 185.933594 C 158.0625 186.273438 157.890625 186.597656 157.6875 186.902344 C 157.480469 187.207031 157.25 187.488281 156.988281 187.75 C 156.730469 188.007812 156.445312 188.242188 156.140625 188.445312 C 155.832031 188.648438 155.511719 188.820312 155.171875 188.960938 C 154.832031 189.101562 154.480469 189.210938 154.121094 189.28125 C 153.757812 189.351562 153.394531 189.386719 153.027344 189.386719 C 152.65625 189.386719 152.292969 189.351562 151.933594 189.28125 C 151.570312 189.210938 151.222656 189.101562 150.882812 188.960938 C 150.542969 188.820312 150.21875 188.648438 149.914062 188.445312 C 149.605469 188.242188 149.324219 188.007812 149.0625 187.75 C 148.804688 187.488281 148.570312 187.207031 148.367188 186.902344 C 148.160156 186.597656 147.988281 186.273438 147.847656 185.933594 C 147.707031 185.59375 147.601562 185.246094 147.527344 184.886719 C 147.457031 184.523438 147.421875 184.160156 147.421875 183.792969 C 147.421875 183.425781 147.457031 183.0625 147.527344 182.703125 C 147.601562 182.34375 147.707031 181.992188 147.847656 181.652344 C 147.988281 181.3125 148.160156 180.992188 148.367188 180.6875 C 148.570312 180.378906 148.804688 180.097656 149.0625 179.839844 C 149.324219 179.578125 149.605469 179.347656 149.914062 179.144531 C 150.21875 178.9375 150.542969 178.765625 150.882812 178.625 C 151.222656 178.484375 151.570312 178.378906 151.933594 178.308594 C 152.292969 178.234375 152.65625 178.199219 153.027344 178.199219 C 153.394531 178.199219 153.757812 178.234375 154.121094 178.308594 C 154.480469 178.378906 154.832031 178.484375 155.171875 178.625 C 155.511719 178.765625 155.832031 178.9375 156.140625 179.144531 C 156.445312 179.347656 156.730469 179.578125 156.988281 179.839844 C 157.25 180.097656 157.480469 180.378906 157.6875 180.6875 C 157.890625 180.992188 158.0625 181.3125 158.203125 181.652344 C 158.34375 181.992188 158.449219 182.34375 158.523438 182.703125 C 158.59375 183.0625 158.628906 183.425781 158.628906 183.792969 Z M 158.628906 183.792969 " fill-opacity="1" fill-rule="nonzero"/><path fill="#bfa680" d="M 241.9375 125.230469 C 238.15625 119.019531 229.1875 106.46875 215.730469 101.011719 C 212.402344 103.90625 213.453125 110.21875 218.882812 112.441406 C 220.367188 113.046875 222.058594 113.242188 223.332031 114.21875 C 227.214844 117.179688 224.332031 124.433594 228.046875 127.601562 C 230.894531 130.027344 235.34375 128.183594 238.9375 129.21875 C 240.265625 129.597656 241.527344 130.390625 242.90625 130.3125 C 243.5 130.277344 244.054688 130.074219 244.546875 129.761719 C 243.640625 128.09375 242.746094 126.558594 241.941406 125.234375 Z M 241.9375 125.230469 " fill-opacity="1" fill-rule="nonzero"/><path fill="#bfa680" d="M 162.988281 125.230469 C 160.652344 129.066406 157.867188 134.152344 155.898438 139.371094 C 158.023438 139.898438 160.421875 139.429688 161.878906 137.773438 C 164.171875 135.171875 164.308594 130.574219 167.554688 129.359375 C 169.003906 128.816406 170.613281 129.191406 172.160156 129.152344 C 176.175781 129.046875 179.851562 125.707031 180.335938 121.726562 C 180.675781 118.890625 179.648438 115.6875 181.285156 113.34375 C 183.351562 110.394531 187.925781 110.539062 189.328125 106.855469 C 190.082031 104.867188 189.546875 102.925781 188.382812 101.355469 C 175.378906 106.972656 166.6875 119.148438 162.984375 125.234375 Z M 162.988281 125.230469 " fill-opacity="1" fill-rule="nonzero"/><path fill="#efe0ca" d="M 248.886719 157.320312 C 243.886719 157.792969 238.414062 156.335938 235.3125 152.390625 C 233.53125 150.128906 232.28125 146.945312 229.464844 146.34375 C 228.042969 146.035156 226.546875 146.515625 225.105469 146.296875 C 220.746094 145.632812 219.484375 139.460938 215.429688 137.730469 C 212.671875 136.550781 212.730469 137.917969 209.808594 137.222656 C 208.351562 136.875 206.511719 135.378906 205 133.570312 C 203.132812 131.34375 199.78125 131.171875 197.648438 133.148438 C 195.703125 134.941406 193.546875 136.421875 191.777344 136.667969 C 189.917969 136.929688 187.761719 136.863281 186.527344 138.273438 C 185.851562 139.042969 185.625 140.09375 185.335938 141.078125 C 183.046875 148.875 174.910156 154.523438 166.792969 153.960938 C 164.519531 153.800781 162.242188 153.214844 159.996094 153.589844 C 158.089844 153.910156 156.351562 154.90625 154.589844 155.59375 L 154.292969 156.246094 C 154.789062 157.488281 155.503906 158.625 156.476562 159.613281 C 156.480469 159.617188 156.484375 159.625 156.484375 159.625 L 193.085938 159.625 C 193.289062 159.625 193.453125 159.789062 193.453125 159.988281 L 193.453125 166.078125 C 198.695312 166.117188 202.414062 165.992188 202.449219 165.992188 C 202.789062 166 234.3125 167.003906 245.039062 161.976562 C 247.40625 160.867188 249.132812 159.25 250.210938 157.15625 C 249.769531 157.222656 249.332031 157.28125 248.886719 157.324219 Z M 248.886719 157.320312 " fill-opacity="1" fill-rule="nonzero"/><path fill="#ef9a6f" d="M 233.097656 112.089844 L 233.1875 112.476562 C 233.078125 109.296875 232.878906 105.859375 230.859375 103.398438 C 230.425781 102.867188 229.882812 102.382812 229.21875 102.210938 C 228.421875 102.007812 227.578125 102.289062 226.84375 102.664062 C 225.980469 103.101562 225.191406 103.671875 224.496094 104.34375 C 226.605469 106.128906 228.746094 108.414062 230.855469 110.199219 C 231.628906 110.855469 232.878906 111.105469 233.097656 112.09375 Z M 233.097656 112.089844 " fill-opacity="1" fill-rule="nonzero"/><path fill="#ef9a6f" d="M 172.484375 112.089844 L 172.394531 112.476562 C 172.503906 109.296875 172.703125 105.859375 174.722656 103.398438 C 175.15625 102.867188 175.699219 102.382812 176.363281 102.210938 C 177.160156 102.007812 178.003906 102.289062 178.738281 102.664062 C 179.597656 103.101562 180.390625 103.671875 181.085938 104.34375 C 178.976562 106.128906 176.835938 108.414062 174.726562 110.199219 C 173.953125 110.855469 172.703125 111.105469 172.484375 112.09375 Z M 172.484375 112.089844 " fill-opacity="1" fill-rule="nonzero"/><path fill="#efe0ca" d="M 207.5625 200.367188 C 215.59375 196.457031 219.917969 188.757812 220.316406 180.296875 C 220.414062 178.160156 220.265625 175.976562 219.859375 173.792969 C 219.4375 171.511719 218.882812 169.015625 217.988281 166.691406 C 214.9375 166.785156 212.082031 166.820312 209.671875 166.820312 C 205.617188 166.820312 202.820312 166.730469 202.449219 166.71875 C 202.433594 166.71875 198.703125 166.839844 193.449219 166.804688 L 193.449219 202.871094 C 198.222656 203.480469 203.253906 202.464844 207.5625 200.367188 Z M 207.5625 200.367188 " fill-opacity="1" fill-rule="nonzero"/><path fill="#bfa680" d="M 242.578125 174.527344 C 242.480469 174.464844 242.414062 174.363281 242.40625 174.242188 C 242.40625 174.230469 242.40625 174.21875 242.40625 174.210938 C 239.617188 169.078125 237.015625 165.417969 236.746094 165.035156 C 235.132812 165.316406 233.433594 165.554688 231.6875 165.753906 C 230.75 166.816406 230.496094 168.203125 231.453125 169.59375 C 232.722656 171.441406 235.371094 171.441406 236.683594 173.226562 C 238.027344 175.066406 236.933594 177.726562 235.34375 179.355469 C 234.519531 180.203125 233.484375 181.199219 233.78125 182.34375 C 234.027344 183.28125 235.113281 183.757812 236.085938 183.804688 C 237.058594 183.855469 238.039062 183.609375 239.007812 183.730469 C 239.972656 183.851562 241 184.523438 241.027344 185.492188 C 241.042969 186.007812 240.773438 186.515625 240.863281 187.023438 C 240.972656 187.644531 241.613281 188.0625 242.246094 188.125 C 242.875 188.1875 243.496094 187.976562 244.089844 187.757812 C 245.328125 187.300781 246.5625 186.792969 247.664062 186.070312 C 246.308594 181.949219 244.414062 177.929688 242.578125 174.527344 Z M 242.578125 174.527344 " fill-opacity="1" fill-rule="nonzero"/><path fill="#bfa680" d="M 253.082031 164.421875 C 250.515625 164.046875 247.742188 165.011719 245.84375 166.9375 C 244.085938 168.71875 243.085938 171.316406 243.128906 173.929688 C 243.789062 175.140625 244.457031 176.429688 245.109375 177.777344 C 247.214844 179.226562 249.753906 180.355469 251.855469 180.84375 C 252.402344 180.96875 252.960938 181.050781 253.527344 181.089844 C 253.527344 180.738281 253.539062 180.386719 253.570312 180.03125 C 253.816406 177.269531 254.789062 176.226562 256.640625 174.472656 C 257.964844 173.21875 258.640625 171.898438 258.699219 170.441406 C 258.839844 167.085938 255.910156 164.839844 253.082031 164.421875 Z M 253.082031 164.421875 " fill-opacity="1" fill-rule="nonzero"/><path fill="#bfa680" d="M 254.667969 187.785156 C 254.328125 186.464844 253.976562 185.121094 253.757812 183.761719 C 251.304688 183.773438 248.859375 183.011719 246.832031 181.628906 C 247.65625 183.621094 248.398438 185.683594 248.976562 187.761719 C 250.84375 188.253906 252.828125 188.304688 254.675781 187.820312 L 254.667969 187.789062 Z M 254.667969 187.785156 " fill-opacity="1" fill-rule="nonzero"/><path fill="#bfa680" d="M 249.019531 201.007812 C 249.238281 200.1875 249.382812 199.339844 249.46875 198.472656 C 249.390625 198.542969 249.3125 198.613281 249.226562 198.671875 C 248.207031 199.367188 246.792969 198.871094 245.8125 198.121094 C 244.835938 197.371094 244.007812 196.367188 242.851562 195.9375 C 240.824219 195.1875 238.308594 196.875 238.234375 199.03125 C 238.207031 199.9375 238.535156 200.8125 238.675781 201.703125 C 238.816406 202.597656 238.71875 203.628906 238.027344 204.21875 C 237.34375 204.804688 236.347656 204.742188 235.449219 204.808594 C 234.070312 204.90625 232.675781 205.410156 231.742188 206.429688 C 230.8125 207.449219 230.453125 209.042969 231.097656 210.261719 C 231.195312 210.449219 231.277344 210.660156 231.351562 210.882812 C 239.785156 209.1875 247.648438 206.214844 249.019531 201.011719 Z M 249.019531 201.007812 " fill-opacity="1" fill-rule="nonzero"/><path fill="#a88d6a" d="M 116.683594 159.941406 L 116.683594 203.320312 L 193.449219 203.320312 L 193.449219 207.960938 L 113.347656 207.960938 L 113.335938 160.355469 Z M 116.683594 159.941406 " fill-opacity="1" fill-rule="nonzero"/><path fill="#93613f" d="M 185.539062 150.644531 C 189.453125 149.613281 190.835938 149.371094 190.835938 145.921875 C 190.835938 141.117188 188.464844 137.222656 185.539062 137.222656 C 182.609375 137.222656 180.242188 141.117188 180.242188 145.921875 C 180.242188 150.726562 182.710938 151.390625 185.539062 150.644531 Z M 185.539062 150.644531 " fill-opacity="1" fill-rule="nonzero"/><path fill="#93613f" d="M 218.707031 150.644531 C 221.535156 151.390625 224.003906 150.726562 224.003906 145.921875 C 224.003906 141.117188 221.632812 137.222656 218.707031 137.222656 C 215.78125 137.222656 213.410156 141.117188 213.410156 145.921875 C 213.410156 149.371094 214.792969 149.609375 218.707031 150.644531 Z M 218.707031 150.644531 " fill-opacity="1" fill-rule="nonzero"/><path fill="#93613f" d="M 231.289062 193.078125 C 230.109375 193.832031 228.757812 194.292969 227.441406 194.285156 C 226.140625 194.277344 224.804688 193.8125 223.851562 192.964844 C 223.367188 192.546875 223.007812 192.042969 222.753906 191.457031 C 222.5 190.875 222.367188 190.207031 222.3125 189.511719 C 222.21875 188.117188 222.449219 186.59375 222.632812 185.085938 C 223.027344 182.070312 223.640625 179.082031 224.292969 176.039062 C 222.792969 178.773438 221.777344 181.765625 221.128906 184.828125 C 220.964844 185.597656 220.820312 186.359375 220.710938 187.148438 C 220.601562 187.9375 220.523438 188.75 220.539062 189.597656 C 220.566406 190.4375 220.679688 191.316406 221.011719 192.164062 C 221.339844 193.003906 221.878906 193.804688 222.554688 194.40625 C 223.902344 195.632812 225.683594 196.246094 227.464844 196.222656 C 229.253906 196.195312 230.914062 195.496094 232.277344 194.523438 C 233.648438 193.542969 234.765625 192.242188 235.503906 190.804688 C 235.875 190.082031 236.171875 189.335938 236.382812 188.566406 C 236.605469 187.800781 236.742188 187.015625 236.800781 186.226562 C 235.960938 187.574219 235.207031 188.890625 234.324219 190.078125 C 233.445312 191.253906 232.480469 192.328125 231.289062 193.085938 Z M 231.289062 193.078125 " fill-opacity="1" fill-rule="nonzero"/><g clip-path="url(#fb326dd5ed)"><path fill="#93613f" d="M 253.242188 163.339844 C 250.332031 162.914062 247.199219 163.996094 245.0625 166.167969 C 243.636719 167.617188 242.65625 169.550781 242.246094 171.613281 C 240.507812 168.601562 238.957031 166.292969 238.15625 165.140625 C 241.039062 164.578125 243.578125 163.867188 245.507812 162.960938 C 248.8125 161.414062 250.996094 158.953125 251.996094 155.644531 C 254.804688 146.355469 247.488281 132.246094 242.875 124.660156 C 242.527344 124.089844 242.136719 123.46875 241.707031 122.804688 C 241.984375 108.652344 238.3125 97.421875 232.746094 95.449219 C 227.210938 93.488281 220.316406 99.546875 218.660156 101.117188 C 213.867188 98.78125 208.457031 97.289062 202.464844 97.289062 C 196.472656 97.289062 191.023438 98.792969 186.21875 101.144531 C 184.609375 99.617188 177.667969 93.480469 172.105469 95.453125 C 166.519531 97.429688 162.84375 108.71875 163.144531 122.925781 C 162.742188 123.546875 162.378906 124.128906 162.050781 124.664062 C 156.90625 133.121094 149.664062 147.511719 153.285156 156.648438 C 152.582031 156.191406 151.75 155.816406 150.753906 155.503906 C 147.15625 154.394531 141.910156 154.386719 138.296875 156.863281 C 137.460938 157.4375 136.917969 158.257812 136.691406 159.257812 L 112.96875 159.257812 C 112.5625 159.257812 112.238281 159.585938 112.238281 159.988281 L 112.238281 207.59375 C 112.238281 211.257812 115.222656 214.234375 118.886719 214.234375 L 208.628906 214.234375 C 210.117188 214.226562 243.785156 213.972656 249.5 202.78125 C 249.652344 202.796875 249.804688 202.804688 249.953125 202.804688 C 253 202.804688 255.578125 200.195312 256.410156 197.433594 C 257.292969 194.511719 256.71875 191.386719 255.972656 188.449219 C 255.890625 188.136719 255.8125 187.820312 255.730469 187.507812 C 255.097656 185.082031 254.445312 182.570312 254.664062 180.125 C 254.875 177.746094 255.65625 176.917969 257.398438 175.261719 C 258.9375 173.804688 259.722656 172.242188 259.796875 170.484375 C 259.960938 166.492188 256.542969 163.824219 253.242188 163.339844 Z M 232.253906 96.824219 C 236.816406 98.441406 240.125 108.488281 240.253906 120.65625 C 236.113281 114.738281 229.292969 106.765625 220.042969 101.832031 C 222.050781 100.023438 227.878906 95.273438 232.253906 96.824219 Z M 172.589844 96.824219 C 176.984375 95.269531 182.855469 100.070312 184.832031 101.855469 C 175.550781 106.828125 168.71875 114.851562 164.59375 120.773438 C 164.703125 108.550781 168.015625 98.449219 172.589844 96.828125 Z M 163.300781 125.421875 C 168.179688 117.402344 181.761719 98.746094 202.460938 98.746094 C 223.164062 98.746094 236.746094 117.402344 241.625 125.421875 C 246.109375 132.796875 253.242188 146.476562 250.59375 155.226562 C 249.71875 158.125 247.796875 160.28125 244.886719 161.644531 C 234.238281 166.636719 202.804688 165.636719 202.488281 165.625 C 202.472656 165.625 202.453125 165.625 202.4375 165.625 C 202.402344 165.625 198.859375 165.746094 193.816406 165.714844 L 193.816406 159.988281 C 193.816406 159.585938 193.488281 159.261719 193.085938 159.261719 L 156.648438 159.261719 C 149.246094 151.511719 157.628906 134.75 163.300781 125.421875 Z M 139.125 158.070312 C 141.015625 156.773438 143.488281 156.261719 145.84375 156.261719 C 147.464844 156.261719 149.039062 156.507812 150.324219 156.902344 C 151.597656 157.296875 152.550781 157.804688 153.234375 158.453125 C 154.03125 159.214844 154.457031 160.210938 154.367188 161.125 C 154.261719 162.253906 153.390625 163.355469 151.78125 164.402344 C 149.75 165.726562 147.714844 166.457031 145.730469 166.574219 C 143.484375 166.710938 141.375 166.003906 139.9375 164.644531 C 138.921875 163.679688 137.914062 161.738281 138.050781 160.042969 C 138.117188 159.179688 138.480469 158.515625 139.132812 158.070312 Z M 113.699219 160.71875 L 136.585938 160.71875 C 136.710938 162.648438 137.789062 164.617188 138.929688 165.695312 C 140.523438 167.203125 142.777344 168.046875 145.195312 168.046875 C 145.402344 168.046875 145.609375 168.039062 145.816406 168.027344 C 148.054688 167.894531 150.332031 167.085938 152.582031 165.621094 C 154.578125 164.320312 155.671875 162.851562 155.824219 161.257812 C 155.839844 161.078125 155.84375 160.898438 155.835938 160.71875 L 192.359375 160.71875 L 192.359375 206.871094 L 113.699219 206.871094 Z M 118.886719 212.777344 C 116.273438 212.777344 114.105469 210.839844 113.75 208.324219 L 202.703125 208.324219 C 205.316406 208.324219 207.484375 210.265625 207.839844 212.777344 Z M 217.988281 212.320312 C 217.199219 212.109375 216.503906 211.792969 216.046875 211.316406 C 215.585938 210.820312 215.304688 210.148438 215.164062 209.335938 C 215.089844 208.933594 215.035156 208.511719 215.003906 208.074219 C 214.964844 207.617188 214.925781 207.140625 214.886719 206.699219 C 214.800781 205.804688 214.78125 204.957031 214.886719 204.175781 C 214.984375 203.410156 215.292969 202.664062 215.726562 202 C 216.160156 201.335938 216.722656 200.757812 217.398438 200.355469 C 218.703125 199.542969 220.644531 199.464844 222.164062 200.597656 C 221.722656 199.75 220.839844 199.105469 219.855469 198.828125 C 219.359375 198.675781 218.832031 198.621094 218.304688 198.648438 C 217.773438 198.671875 217.234375 198.796875 216.738281 198.996094 C 215.738281 199.398438 214.878906 200.097656 214.242188 200.945312 C 213.613281 201.789062 213.152344 202.78125 212.953125 203.847656 C 212.75 204.898438 212.808594 205.914062 212.875 206.863281 C 212.90625 207.339844 212.957031 207.789062 213.003906 208.253906 C 213.046875 208.738281 213.121094 209.238281 213.230469 209.738281 C 213.339844 210.242188 213.511719 210.761719 213.765625 211.261719 C 213.996094 211.730469 214.324219 212.175781 214.726562 212.546875 C 212.210938 212.695312 210.273438 212.746094 209.304688 212.769531 C 208.933594 209.457031 206.117188 206.871094 202.699219 206.871094 L 193.808594 206.871094 L 193.808594 167.171875 C 198.652344 167.203125 202.128906 167.09375 202.453125 167.082031 C 202.910156 167.097656 205.667969 167.1875 209.636719 167.1875 C 216.804688 167.1875 227.917969 166.90625 236.566406 165.433594 C 237.171875 166.292969 239.527344 169.707031 242.042969 174.320312 C 242.066406 174.503906 242.15625 174.660156 242.289062 174.777344 C 246.375 182.371094 250.746094 193 248.660156 200.917969 C 246.589844 208.765625 229.152344 211.421875 217.976562 212.320312 Z M 256.390625 174.210938 C 254.527344 175.976562 253.460938 177.113281 253.210938 180 C 252.972656 182.699219 253.65625 185.332031 254.316406 187.878906 C 254.398438 188.191406 254.480469 188.5 254.558594 188.8125 C 255.253906 191.550781 255.789062 194.433594 255.011719 197.019531 C 254.367188 199.164062 252.355469 201.269531 250.0625 201.347656 C 250.066406 201.328125 250.074219 201.308594 250.078125 201.292969 C 252.328125 192.757812 247.730469 181.644531 243.492188 173.839844 C 243.472656 171.347656 244.433594 168.886719 246.101562 167.191406 C 247.917969 165.347656 250.570312 164.421875 253.027344 164.785156 C 255.699219 165.175781 258.46875 167.289062 258.335938 170.429688 C 258.277344 171.792969 257.640625 173.027344 256.390625 174.210938 Z M 256.390625 174.210938 " fill-opacity="1" fill-rule="nonzero"/></g><path fill="#93613f" d="M 230.753906 148.121094 L 243.246094 144.027344 C 243.285156 144.011719 243.3125 143.972656 243.300781 143.925781 C 243.289062 143.878906 243.246094 143.847656 243.195312 143.859375 L 230.363281 146.714844 C 230.339844 146.722656 230.320312 146.726562 230.292969 146.734375 C 229.914062 146.859375 229.703125 147.273438 229.828125 147.652344 C 229.953125 148.035156 230.367188 148.246094 230.75 148.121094 Z M 230.753906 148.121094 " fill-opacity="1" fill-rule="nonzero"/><path fill="#93613f" d="M 239.949219 150.296875 L 231.742188 150.871094 C 231.714844 150.871094 231.675781 150.875 231.644531 150.886719 C 231.25 150.964844 230.992188 151.355469 231.078125 151.75 C 231.160156 152.144531 231.546875 152.398438 231.945312 152.316406 L 239.996094 150.632812 C 240.078125 150.613281 240.140625 150.539062 240.132812 150.453125 C 240.128906 150.363281 240.046875 150.289062 239.953125 150.296875 Z M 239.949219 150.296875 " fill-opacity="1" fill-rule="nonzero"/><path fill="#93613f" d="M 236.382812 156.140625 L 231.992188 154.699219 C 231.9375 154.679688 231.878906 154.667969 231.820312 154.667969 C 231.417969 154.632812 231.0625 154.933594 231.03125 155.335938 C 230.996094 155.738281 231.296875 156.09375 231.703125 156.128906 L 236.308594 156.507812 C 236.394531 156.511719 236.476562 156.460938 236.503906 156.375 C 236.539062 156.277344 236.484375 156.171875 236.382812 156.140625 Z M 236.382812 156.140625 " fill-opacity="1" fill-rule="nonzero"/><path fill="#93613f" d="M 160.917969 144.328125 L 173.492188 148.125 C 173.492188 148.125 173.515625 148.132812 173.527344 148.132812 C 173.917969 148.230469 174.316406 147.992188 174.414062 147.601562 C 174.511719 147.210938 174.273438 146.816406 173.878906 146.71875 L 161.128906 143.566406 C 160.925781 143.515625 160.714844 143.632812 160.652344 143.835938 C 160.589844 144.046875 160.707031 144.265625 160.917969 144.328125 Z M 160.917969 144.328125 " fill-opacity="1" fill-rule="nonzero"/><path fill="#93613f" d="M 172.359375 152.320312 C 172.761719 152.359375 173.117188 152.066406 173.15625 151.667969 C 173.195312 151.265625 172.902344 150.910156 172.5 150.871094 L 164.324219 150.085938 C 164.128906 150.066406 163.945312 150.203125 163.910156 150.398438 C 163.871094 150.605469 164.007812 150.804688 164.214844 150.84375 L 172.296875 152.3125 C 172.316406 152.316406 172.339844 152.320312 172.355469 152.320312 Z M 172.359375 152.320312 " fill-opacity="1" fill-rule="nonzero"/><path fill="#93613f" d="M 172.25 154.699219 L 167.878906 156.238281 C 167.84375 156.25 167.820312 156.285156 167.820312 156.324219 C 167.820312 156.375 167.867188 156.410156 167.914062 156.40625 L 172.542969 156.128906 C 172.609375 156.125 172.679688 156.109375 172.746094 156.089844 C 173.128906 155.953125 173.328125 155.53125 173.195312 155.148438 C 173.0625 154.765625 172.640625 154.566406 172.257812 154.699219 Z M 172.25 154.699219 " fill-opacity="1" fill-rule="nonzero"/><path fill="#93613f" d="M 198.914062 150.421875 C 200.175781 150.382812 201.421875 149.894531 202.410156 149.046875 C 202.824219 149.386719 203.28125 149.660156 203.757812 149.855469 C 204.472656 150.15625 205.234375 150.308594 205.992188 150.3125 C 207.523438 150.3125 208.976562 149.640625 209.929688 148.554688 C 209.984375 148.492188 209.988281 148.394531 209.929688 148.332031 C 209.871094 148.261719 209.761719 148.253906 209.691406 148.316406 C 208.679688 149.199219 207.300781 149.589844 206.050781 149.414062 C 204.980469 149.265625 203.96875 148.746094 203.296875 148.003906 C 204.527344 147.710938 205.425781 146.761719 205.425781 145.640625 C 205.425781 144.28125 204.105469 145.199219 202.484375 145.199219 C 200.859375 145.199219 199.542969 144.28125 199.542969 145.640625 C 199.542969 146.71875 200.375 147.636719 201.53125 147.964844 C 200.863281 148.730469 199.886719 149.277344 198.835938 149.425781 C 197.621094 149.597656 196.285156 149.242188 195.285156 148.425781 C 195.179688 148.339844 195.023438 148.34375 194.925781 148.441406 C 194.820312 148.542969 194.816406 148.714844 194.921875 148.820312 C 195.9375 149.851562 197.402344 150.457031 198.917969 150.414062 Z M 198.914062 150.421875 " fill-opacity="1" fill-rule="nonzero"/><path fill="#ffffff" d="M 218.710938 142.589844 C 218.710938 142.832031 218.664062 143.066406 218.570312 143.289062 C 218.476562 143.515625 218.34375 143.710938 218.171875 143.882812 C 218 144.054688 217.804688 144.1875 217.578125 144.28125 C 217.355469 144.371094 217.121094 144.417969 216.878906 144.417969 C 216.636719 144.417969 216.402344 144.371094 216.179688 144.28125 C 215.953125 144.1875 215.753906 144.054688 215.582031 143.882812 C 215.414062 143.710938 215.28125 143.515625 215.1875 143.289062 C 215.09375 143.066406 215.046875 142.832031 215.046875 142.589844 C 215.046875 142.347656 215.09375 142.117188 215.1875 141.890625 C 215.28125 141.667969 215.414062 141.46875 215.582031 141.300781 C 215.753906 141.128906 215.953125 140.996094 216.179688 140.902344 C 216.402344 140.808594 216.636719 140.761719 216.878906 140.761719 C 217.121094 140.761719 217.355469 140.808594 217.578125 140.902344 C 217.804688 140.996094 218 141.128906 218.171875 141.300781 C 218.34375 141.46875 218.476562 141.667969 218.570312 141.890625 C 218.664062 142.117188 218.710938 142.347656 218.710938 142.589844 Z M 218.710938 142.589844 " fill-opacity="1" fill-rule="nonzero"/><path fill="#ffffff" d="M 189.195312 142.589844 C 189.195312 142.832031 189.152344 143.066406 189.058594 143.289062 C 188.964844 143.515625 188.832031 143.710938 188.660156 143.882812 C 188.488281 144.054688 188.289062 144.1875 188.066406 144.28125 C 187.84375 144.371094 187.609375 144.417969 187.367188 144.417969 C 187.125 144.417969 186.890625 144.371094 186.664062 144.28125 C 186.441406 144.1875 186.242188 144.054688 186.070312 143.882812 C 185.898438 143.710938 185.765625 143.515625 185.675781 143.289062 C 185.582031 143.066406 185.535156 142.832031 185.535156 142.589844 C 185.535156 142.347656 185.582031 142.117188 185.675781 141.890625 C 185.765625 141.667969 185.898438 141.46875 186.070312 141.300781 C 186.242188 141.128906 186.441406 140.996094 186.664062 140.902344 C 186.890625 140.808594 187.125 140.761719 187.367188 140.761719 C 187.609375 140.761719 187.84375 140.808594 188.066406 140.902344 C 188.289062 140.996094 188.488281 141.128906 188.660156 141.300781 C 188.832031 141.46875 188.964844 141.667969 189.058594 141.890625 C 189.152344 142.117188 189.195312 142.347656 189.195312 142.589844 Z M 189.195312 142.589844 " fill-opacity="1" fill-rule="nonzero"/></svg>